<?xml version="1.0" encoding="UTF-8" standalone="no"?>
<svg
   width="728"
   height="547"
   viewBox="0 0 728 547"
   fill="none"
   version="1.1"
   id="svg17"
   sodipodi:docname="Lineups sitegeeky4.svg"
   inkscape:version="1.4.3 (0d15f75, 2025-12-25)"
   xmlns:inkscape="http://www.inkscape.org/namespaces/inkscape"
   xmlns:sodipodi="http://sodipodi.sourceforge.net/DTD/sodipodi-0.dtd"
   xmlns="http://www.w3.org/2000/svg"
   xmlns:svg="http://www.w3.org/2000/svg">
  <sodipodi:namedview
     id="namedview17"
     pagecolor="#ffffff"
     bordercolor="#000000"
     borderopacity="0.25"
     inkscape:showpageshadow="2"
     inkscape:pageopacity="0.0"
     inkscape:pagecheckerboard="0"
     inkscape:deskcolor="#d1d1d1"
     inkscape:zoom="1.4753199"
     inkscape:cx="364.32776"
     inkscape:cy="381.95105"
     inkscape:window-width="1920"
     inkscape:window-height="1009"
     inkscape:window-x="-8"
     inkscape:window-y="-8"
     inkscape:window-maximized="1"
     inkscape:current-layer="g15" />
  <g
     clip-path="url(#clip0_252_1910)"
     id="g15">
    <g
       clip-path="url(#clip1_252_1910)"
       id="g11">
      <path
         fill-rule="evenodd"
         clip-rule="evenodd"
         d="M467.53 43H488.445H509.359H530.273H551.19H569.323H587.456H605.589H623.722C625.095 45.5992 626.483 48.2266 627.886 50.8821C629.304 53.5663 630.738 56.2787 632.186 59.0209C633.651 61.7935 635.131 64.596 636.628 67.4299C638.142 70.2949 639.672 73.1914 641.22 76.121C642.887 79.2742 644.572 82.4657 646.279 85.6948C648.006 88.9646 649.755 92.2737 651.525 95.6245C653.317 99.0163 655.131 102.451 656.969 105.93C658.83 109.451 660.714 113.019 662.624 116.633C664.461 120.109 666.32 123.629 668.202 127.191C670.109 130.799 672.038 134.451 673.992 138.15C675.972 141.896 677.976 145.691 680.007 149.534C682.064 153.428 684.148 157.372 686.259 161.369C688.604 165.806 690.982 170.307 693.395 174.874C695.844 179.509 698.329 184.214 700.853 188.99C703.413 193.838 706.015 198.761 708.655 203.76C711.337 208.836 714.061 213.992 716.829 219.229C719.967 225.169 723.162 231.217 726.414 237.373C729.726 243.641 733.099 250.025 736.535 256.529C740.035 263.154 743.601 269.905 747.237 276.784C750.942 283.798 754.72 290.947 758.572 298.238C763.048 306.711 767.627 315.379 772.313 324.248C777.109 333.326 782.019 342.619 787.047 352.136C792.198 361.885 797.475 371.875 802.885 382.114C808.431 392.611 814.119 403.378 819.955 414.423C822.792 419.791 825.664 425.229 828.572 430.734C831.518 436.308 834.501 441.955 837.523 447.675C840.583 453.468 843.684 459.336 846.825 465.281C850.007 471.304 853.231 477.407 856.498 483.591C859.126 488.564 861.782 493.591 864.467 498.673C867.181 503.81 869.924 509.003 872.698 514.252C875.502 519.56 878.338 524.927 881.204 530.353C884.104 535.84 887.035 541.389 890 547H853.284H816.567H779.85H743.134H700.783H658.435H616.088H573.737H531.381H489.026H446.671H404.318H364.032H323.743H283.456H243.174H213.733H184.292H154.85H125.409H88.7389H52.0639H15.39H-21.2808H-30.8449H-40.4145H-49.9852H-59.5548H-85.6642H-111.777H-137.891H-164C-161.025 541.389 -158.084 535.84 -155.175 530.353C-152.298 524.927 -149.453 519.56 -146.64 514.252C-143.856 509.003 -141.103 503.81 -138.38 498.673C-135.686 493.591 -133.022 488.564 -130.384 483.591C-127.106 477.407 -123.871 471.304 -120.678 465.281C-117.526 459.336 -114.415 453.468 -111.344 447.675C-108.313 441.955 -105.319 436.308 -102.364 430.734C-99.4449 425.229 -96.5632 419.791 -93.7167 414.423C-87.8611 403.378 -82.1542 392.611 -76.5887 382.114C-71.1611 371.875 -65.8652 361.885 -60.6967 352.136C-55.6515 342.619 -50.7246 333.326 -45.9125 324.248C-41.2103 315.379 -36.6155 306.711 -32.1246 298.238C-28.2589 290.947 -24.4684 283.798 -20.7508 276.784C-17.1037 269.905 -13.5245 263.154 -10.0127 256.529C-6.56523 250.025 -3.18094 243.641 0.14267 237.373C3.40619 231.217 6.61205 225.169 9.76082 219.229C12.5375 213.992 15.271 208.836 17.9621 203.76C20.6119 198.761 23.2216 193.838 25.7919 188.99C28.3233 184.214 30.8176 179.509 33.275 174.874C35.6959 170.307 38.0822 165.806 40.4339 161.369C42.5532 157.372 44.6439 153.428 46.7079 149.534C48.7457 145.691 50.7575 141.896 52.7432 138.15C54.7045 134.451 56.6404 130.799 58.5532 127.191C60.4418 123.629 62.3073 120.109 64.1503 116.633C66.0661 113.019 67.9571 109.451 69.8244 105.93C71.6686 102.451 73.4892 99.0163 75.2873 95.6245C77.0635 92.2737 78.8179 88.9646 80.551 85.6948C82.2635 82.4657 83.9554 79.2742 85.6266 76.121C87.18 73.1914 88.7152 70.2949 90.2341 67.4299C91.7365 64.596 93.222 61.7935 94.6917 59.0209C96.1456 56.2787 97.5837 53.5663 99.0066 50.8821C100.414 48.2266 101.807 45.5992 103.185 43H116.08H128.976H141.873H154.767H159.493H164.22H168.946H173.67H191.78H209.893H228.005H246.115H260.655H275.196H289.736H304.275H324.17H344.066H363.963H383.859H404.776H425.694H446.611H467.53Z"
         fill="#31813F"
         id="path1" />
      <mask
         id="mask0_252_1910"
         style="mask-type:alpha"
         maskUnits="userSpaceOnUse"
         x="-164"
         y="43"
         width="1054"
         height="504">
        <path
           fill-rule="evenodd"
           clip-rule="evenodd"
           d="M467.53 43H488.445H509.359H530.273H551.19H569.323H587.456H605.589H623.722C625.095 45.5992 626.483 48.2266 627.886 50.8821C629.304 53.5663 630.738 56.2787 632.186 59.0209C633.651 61.7935 635.131 64.596 636.628 67.4299C638.142 70.2949 639.672 73.1914 641.22 76.121C642.887 79.2742 644.572 82.4657 646.279 85.6948C648.006 88.9646 649.755 92.2737 651.525 95.6245C653.317 99.0163 655.131 102.451 656.969 105.93C658.83 109.451 660.714 113.019 662.624 116.633C664.461 120.109 666.32 123.629 668.202 127.191C670.109 130.799 672.038 134.451 673.992 138.15C675.972 141.896 677.976 145.691 680.007 149.534C682.064 153.428 684.148 157.372 686.259 161.369C688.604 165.806 690.982 170.307 693.395 174.874C695.844 179.509 698.329 184.214 700.853 188.99C703.413 193.838 706.015 198.761 708.655 203.76C711.337 208.836 714.061 213.992 716.829 219.229C719.967 225.169 723.162 231.217 726.414 237.373C729.726 243.641 733.099 250.025 736.535 256.529C740.035 263.154 743.601 269.905 747.237 276.784C750.942 283.798 754.72 290.947 758.572 298.238C763.048 306.711 767.627 315.379 772.313 324.248C777.109 333.326 782.019 342.619 787.047 352.136C792.198 361.885 797.475 371.875 802.885 382.114C808.431 392.611 814.119 403.378 819.955 414.423C822.792 419.791 825.664 425.229 828.572 430.734C831.518 436.308 834.501 441.955 837.523 447.675C840.583 453.468 843.684 459.336 846.825 465.281C850.007 471.304 853.231 477.407 856.498 483.591C859.126 488.564 861.782 493.591 864.467 498.673C867.181 503.81 869.924 509.003 872.698 514.252C875.502 519.56 878.338 524.927 881.204 530.353C884.104 535.84 887.035 541.389 890 547H853.284H816.567H779.85H743.134H700.783H658.435H616.088H573.737H531.381H489.026H446.671H404.318H364.032H323.743H283.456H243.174H213.733H184.292H154.85H125.409H88.7389H52.0639H15.39H-21.2808H-30.8449H-40.4145H-49.9852H-59.5548H-85.6642H-111.777H-137.891H-164C-161.025 541.389 -158.084 535.84 -155.175 530.353C-152.298 524.927 -149.453 519.56 -146.64 514.252C-143.856 509.003 -141.103 503.81 -138.38 498.673C-135.686 493.591 -133.022 488.564 -130.384 483.591C-127.106 477.407 -123.871 471.304 -120.678 465.281C-117.526 459.336 -114.415 453.468 -111.344 447.675C-108.313 441.955 -105.319 436.308 -102.364 430.734C-99.4449 425.229 -96.5632 419.791 -93.7167 414.423C-87.8611 403.378 -82.1542 392.611 -76.5887 382.114C-71.1611 371.875 -65.8652 361.885 -60.6967 352.136C-55.6515 342.619 -50.7246 333.326 -45.9125 324.248C-41.2103 315.379 -36.6155 306.711 -32.1246 298.238C-28.2589 290.947 -24.4684 283.798 -20.7508 276.784C-17.1037 269.905 -13.5245 263.154 -10.0127 256.529C-6.56523 250.025 -3.18094 243.641 0.14267 237.373C3.40619 231.217 6.61205 225.169 9.76082 219.229C12.5375 213.992 15.271 208.836 17.9621 203.76C20.6119 198.761 23.2216 193.838 25.7919 188.99C28.3233 184.214 30.8176 179.509 33.275 174.874C35.6959 170.307 38.0822 165.806 40.4339 161.369C42.5532 157.372 44.6439 153.428 46.7079 149.534C48.7457 145.691 50.7575 141.896 52.7432 138.15C54.7045 134.451 56.6404 130.799 58.5532 127.191C60.4418 123.629 62.3073 120.109 64.1503 116.633C66.0661 113.019 67.9571 109.451 69.8244 105.93C71.6686 102.451 73.4892 99.0163 75.2873 95.6245C77.0635 92.2737 78.8179 88.9646 80.551 85.6948C82.2635 82.4657 83.9554 79.2742 85.6266 76.121C87.18 73.1914 88.7152 70.2949 90.2341 67.4299C91.7365 64.596 93.222 61.7935 94.6917 59.0209C96.1456 56.2787 97.5837 53.5663 99.0066 50.8821C100.414 48.2266 101.807 45.5992 103.185 43H116.08H128.976H141.873H154.767H159.493H164.22H168.946H173.67H191.78H209.893H228.005H246.115H260.655H275.196H289.736H304.275H324.17H344.066H363.963H383.859H404.776H425.694H446.611H467.53Z"
           fill="white"
           id="path2" />
      </mask>
      <g
         mask="url(#mask0_252_1910)"
         id="g10">
        <path
           fill-rule="evenodd"
           clip-rule="evenodd"
           d="M634.863 43H93.1685L93.1483 43.039L84.0214 60.9581L84 61H644L634.863 43Z"
           fill="black"
           fill-opacity="0.05"
           id="path3" />
        <path
           fill-rule="evenodd"
           clip-rule="evenodd"
           d="M653.544 80H75.4916L65 101H664L653.544 80Z"
           fill="black"
           fill-opacity="0.05"
           id="path4" />
        <path
           fill-rule="evenodd"
           clip-rule="evenodd"
           d="M675.857 123H53.1848L41.0281 146.944L41 147H688L675.857 123Z"
           fill="black"
           fill-opacity="0.05"
           id="path5" />
        <path
           fill-rule="evenodd"
           clip-rule="evenodd"
           d="M700.774 173H28.2744L14 201H715L700.774 173Z"
           fill="black"
           fill-opacity="0.05"
           id="path6" />
        <path
           fill-rule="evenodd"
           clip-rule="evenodd"
           d="M730.08 231H-2.0217L-18.9603 264.921L-19 265H747L730.08 231Z"
           fill="black"
           fill-opacity="0.05"
           id="path7" />
        <path
           fill-rule="evenodd"
           clip-rule="evenodd"
           d="M779.847 308H-50.774L-72 347H801L779.847 308Z"
           fill="black"
           fill-opacity="0.05"
           id="path8" />
        <path
           fill-rule="evenodd"
           clip-rule="evenodd"
           d="M823.914 391H-95.8257L-121.938 442.877L-122 443H850L823.914 391Z"
           fill="black"
           fill-opacity="0.05"
           id="path9" />
        <path
           fill-rule="evenodd"
           clip-rule="evenodd"
           d="M878.047 487H-151.934L-185 556H911L878.047 487Z"
           fill="black"
           fill-opacity="0.05"
           id="path10" />
      </g>
    </g>
    <g
       opacity="0.4"
       id="g13">
      <path
         fill-rule="evenodd"
         clip-rule="evenodd"
         d="M363.493 396C362.738 396 362.019 396.11 361.364 396.311C360.708 396.511 360.118 396.802 359.621 397.161C359.124 397.52 358.721 397.949 358.44 398.426C358.16 398.903 358.003 399.429 358 399.982C357.996 400.534 358.147 401.06 358.422 401.539C358.698 402.02 359.099 402.453 359.595 402.817C360.092 403.182 360.684 403.478 361.343 403.683C362.003 403.887 362.728 404 363.49 404C364.256 404 364.984 403.887 365.646 403.683C366.307 403.478 366.902 403.182 367.4 402.817C367.898 402.453 368.3 402.02 368.576 401.539C368.852 401.06 369.003 400.534 369 399.982C368.997 399.429 368.84 398.903 368.56 398.426C368.28 397.949 367.876 397.52 367.378 397.161C366.881 396.802 366.289 396.511 365.632 396.311C364.975 396.11 364.253 396 363.493 396Z"
         fill="white"
         id="path11" />
      <path
         fill-rule="evenodd"
         clip-rule="evenodd"
         d="M363.497 94C363.154 94 362.827 94.0414 362.529 94.1165C362.231 94.1917 361.963 94.3006 361.737 94.4352C361.511 94.5701 361.328 94.7308 361.2 94.9096C361.073 95.0887 361.002 95.2859 361 95.4933C360.998 95.7002 361.067 95.8975 361.192 96.0773C361.317 96.2575 361.499 96.42 361.725 96.5565C361.951 96.6932 362.22 96.8041 362.52 96.881C362.82 96.9577 363.149 97 363.495 97C363.844 97 364.175 96.9577 364.476 96.881C364.776 96.8041 365.046 96.6932 365.273 96.5565C365.499 96.42 365.682 96.2575 365.807 96.0773C365.933 95.8975 366.001 95.7002 366 95.4933C365.999 95.2859 365.927 95.0887 365.8 94.9096C365.673 94.7308 365.489 94.5701 365.263 94.4352C365.037 94.3006 364.768 94.1917 364.469 94.1165C364.17 94.0414 363.842 94 363.497 94Z"
         fill="white"
         id="path12" />
      <path
         fill-rule="evenodd"
         clip-rule="evenodd"
         d="M336.879 60H299.266H223.88H159.044H145.039H144.698L2 491H2.63793H28.8826H101.712H242.975H483.63H624.893H697.722H723.967L716.451 471.719L584.134 65.6766L581.922 60H567.916H503.079H427.694H390.082H336.879ZM581.791 64.8379C580.441 64.7895 579.122 64.646 577.884 64.4238C576.646 64.2022 575.489 63.903 574.463 63.5433C573.437 63.1837 572.54 62.7646 571.823 62.3016C571.106 61.8396 570.567 61.3353 570.251 60.8046H580.235L581.791 64.8379ZM363.267 122.964C368.744 122.964 374.118 122.686 379.305 122.152C384.482 121.618 389.461 120.829 394.16 119.802C398.841 118.781 403.235 117.525 407.261 116.058C411.266 114.598 414.899 112.93 418.086 111.075H517.515L503.308 60.8046H568.252C568.607 61.4458 569.24 62.0568 570.093 62.615C570.947 63.1749 572.022 63.6825 573.256 64.1158C574.493 64.5503 575.888 64.91 577.383 65.174C578.88 65.4374 580.475 65.6051 582.106 65.6546L627.78 209.293H446.171C445.246 203.458 442.148 197.999 437.378 193.115C432.68 188.307 426.347 184.041 418.829 180.503C411.398 177.007 402.776 174.206 393.373 172.287C384.028 170.379 373.859 169.329 363.233 169.329C352.604 169.329 342.431 170.379 333.082 172.287C323.675 174.206 315.048 177.007 307.611 180.503C300.088 184.041 293.749 188.307 289.046 193.115C284.27 197.999 281.165 203.458 280.234 209.293H98.6256L144.511 65.6618C146.176 65.6282 147.806 65.4709 149.339 65.2119C150.871 64.954 152.303 64.5954 153.572 64.1587C154.839 63.7237 155.944 63.2106 156.821 62.6436C157.696 62.0772 158.346 61.4568 158.708 60.8046H223.652L209.403 111.075H308.467C311.651 112.93 315.282 114.598 319.284 116.058C323.308 117.525 327.7 118.781 332.379 119.802C337.076 120.829 342.055 121.618 347.231 122.152C352.417 122.686 357.792 122.964 363.267 122.964ZM297.093 76.6405H429.854L427.798 60.8046H501.306L515.04 110.103H419.755H306.799H211.879L225.653 60.8046H299.161L297.093 76.6405ZM299.265 75.7836L301.161 60.8046H336.835H390.125H425.789L427.672 75.7836H299.265ZM145.165 64.8379L146.725 60.8046H156.708C156.393 61.3353 155.852 61.8396 155.135 62.3016C154.417 62.7646 153.521 63.1837 152.495 63.5433C151.468 63.903 150.311 64.2022 149.073 64.4238C147.835 64.646 146.515 64.7895 145.165 64.8379ZM363.269 121.943C358.125 121.943 353.073 121.692 348.191 121.205C343.317 120.72 338.62 120 334.174 119.064C329.743 118.131 325.569 116.984 321.725 115.641C317.9 114.306 314.406 112.777 311.313 111.075H415.239C412.144 112.777 408.647 114.306 404.819 115.641C400.972 116.984 396.796 118.131 392.363 119.064C387.916 120 383.217 120.72 378.342 121.205C373.46 121.692 368.41 121.943 363.269 121.943ZM282.847 209.293C283.732 203.642 286.722 198.352 291.336 193.618C295.88 188.955 302.014 184.816 309.3 181.383C316.504 177.987 324.865 175.268 333.988 173.404C343.054 171.55 352.922 170.531 363.232 170.531C373.542 170.531 383.408 171.55 392.472 173.404C401.591 175.268 409.948 177.987 417.148 181.383C424.428 184.816 430.556 188.955 435.093 193.618C439.699 198.352 442.682 203.642 443.558 209.293H367.321C367.183 209.081 366.983 208.883 366.734 208.705C366.484 208.527 366.184 208.37 365.844 208.24C365.505 208.109 365.125 208.005 364.717 207.934C364.308 207.863 363.87 207.825 363.413 207.825C362.959 207.825 362.524 207.863 362.116 207.934C361.709 208.005 361.331 208.109 360.992 208.24C360.653 208.37 360.353 208.527 360.103 208.705C359.854 208.883 359.655 209.081 359.516 209.293H282.847ZM363.168 256.496C375.331 256.496 386.885 255.126 397.314 252.663C407.668 250.217 416.848 246.707 424.393 242.419C431.843 238.184 437.665 233.209 441.455 227.768C445.183 222.416 446.933 216.629 446.347 210.66H628.307L712.815 471.791C709.952 471.954 707.383 472.506 705.174 473.378C702.96 474.252 701.105 475.449 699.675 476.9C698.242 478.355 697.237 480.068 696.732 481.969C696.224 483.878 696.22 485.979 696.794 488.201H624.102L585.833 352.799H442.246C437.034 348.963 431.327 345.568 425.237 342.637C419.193 339.727 412.757 337.268 406.036 335.285C399.348 333.312 392.361 331.806 385.174 330.794C378.006 329.784 370.621 329.264 363.113 329.264C355.607 329.264 348.221 329.784 341.051 330.794C333.862 331.806 326.873 333.312 320.182 335.285C313.457 337.268 307.018 339.727 300.969 342.637C294.875 345.568 289.163 348.963 283.945 352.799H140.885L102.506 488.201H29.8136C30.3983 485.941 30.3857 483.807 29.853 481.873C29.3221 479.947 28.2754 478.216 26.7885 476.755C25.3061 475.298 23.3848 474.106 21.096 473.251C18.8122 472.397 16.1597 471.879 13.2073 471.767L98.0959 210.66H280.056C279.459 216.629 281.198 222.416 284.916 227.768C288.696 233.209 294.51 238.184 301.955 242.419C309.493 246.707 318.668 250.217 329.021 252.663C339.447 255.126 351.001 256.496 363.168 256.496ZM363.411 212.142C363.871 212.142 364.312 212.103 364.723 212.031C365.135 211.958 365.515 211.853 365.857 211.721C366.197 211.589 366.497 211.431 366.746 211.252C366.995 211.074 367.193 210.873 367.328 210.66H443.728C444.269 216.437 442.55 222.036 438.92 227.21C435.233 232.467 429.583 237.272 422.366 241.36C415.059 245.497 406.177 248.882 396.165 251.241C386.085 253.616 374.92 254.936 363.169 254.936C351.417 254.936 340.255 253.616 330.177 251.241C320.169 248.882 311.293 245.497 303.992 241.36C296.78 237.272 291.139 232.467 287.459 227.21C283.836 222.036 282.125 216.437 282.675 210.66H359.507C359.643 210.873 359.841 211.074 360.09 211.252C360.338 211.431 360.638 211.589 360.977 211.721C361.317 211.853 361.697 211.958 362.107 212.031C362.516 212.103 362.954 212.142 363.411 212.142ZM288.055 352.799C293.061 349.276 298.513 346.159 304.308 343.468C310.065 340.795 316.175 338.537 322.544 336.717C328.883 334.905 335.493 333.522 342.284 332.593C349.059 331.666 356.03 331.189 363.112 331.189C370.191 331.189 377.159 331.666 383.931 332.593C390.721 333.522 397.329 334.905 403.666 336.717C410.033 338.537 416.14 340.795 421.894 343.468C427.688 346.159 433.135 349.276 438.136 352.799H288.055ZM106.237 488.201L143.5 354.835H281.177H445.011H583.217L620.37 488.201H483.267L476.719 437.747H249.93L243.341 488.201H106.237ZM247.071 488.201L253.14 440.248H473.491L479.519 488.201H247.071ZM700.525 488.201C700.077 486.362 700.1 484.623 700.532 483.039C700.962 481.461 701.8 480.037 702.988 478.822C704.174 477.61 705.71 476.607 707.539 475.864C709.366 475.123 711.488 474.643 713.852 474.479L719.146 488.201H700.525ZM7.46219 488.201L12.7672 474.479C15.1311 474.643 17.2528 475.123 19.0783 475.864C20.9076 476.607 22.442 477.61 23.6264 478.822C24.814 480.037 25.651 481.461 26.0799 483.039C26.5112 484.623 26.5312 486.362 26.083 488.201H7.46219Z"
         fill="white"
         id="path13" />
    </g>
    <g
       style="mix-blend-mode:soft-light"
       opacity="0.7"
       clip-path="url(#clip2_252_1910)"
       id="g14" />
    <text
       xml:space="preserve"
       style="font-size:18.6667px;writing-mode:lr-tb;direction:ltr;fill:#cccccc"
       x="555.13379"
       y="511.75342"
       id="text23"><tspan
         sodipodi:role="line"
         id="tspan23"
         x="555.13379"
         y="511.75342">sitegeeky.com</tspan></text>
    <text
       xml:space="preserve"
       style="font-size:13.3333px;writing-mode:lr-tb;direction:ltr;fill:#cccccc"
       x="530.05457"
       y="527.3432"
       id="text24"><tspan
         sodipodi:role="line"
         id="tspan24"
         x="530.05457"
         y="527.3432">WhatsApp +201551035787</tspan></text>
  </g>
  <defs
     id="defs17">
    <clipPath
       id="clip0_252_1910">
      <rect
         width="728"
         height="547"
         fill="white"
         id="rect15" />
    </clipPath>
    <clipPath
       id="clip1_252_1910">
      <rect
         width="728"
         height="504"
         fill="white"
         transform="translate(0 43)"
         id="rect16" />
    </clipPath>
    <clipPath
       id="clip2_252_1910">
      <rect
         width="60"
         height="32"
         fill="white"
         transform="translate(16 503)"
         id="rect17" />
    </clipPath>
  </defs>
</svg>
